#!OML:ASF H:\Terrain\Patient Classification 1\Animal1\Tuesday\Animal1.ASF
:FULLY-SPECIFIED
:DEGREES
1450
root 6.13062 14.5092 -14.2656 -347.983 5.03096 0.194091
lowerback 24.4181 -0.211738 1.9983
upperback 17.2427 0.18068 -0.529285
thorax 5.65611 0.350124 -1.73186
lowerneck -4.96279 4.1754 0.723954
upperneck -14.2052 5.6979 -0.923198
head -3.70008 2.89465 -0.525853
rclavicle 0 -1.46107e-014
rhumerus -20.6182 73.7418 -25.5325
rradius 114.149
rwrist -100.058
rhand 49.5246 9.82162
rfingers 7.12502
rthumb 69.6374 12.9636
lclavicle 0 -1.46107e-014
lhumerus 6.13706 -68.8214 1.87108
lradius 110.048
lwrist 59.288
lhand 67.3943 39.5655
lfingers 7.12502
lthumb 74.4783 -19.8654
rfemur -49.126 -8.01055 12.5861
rtibia 64.0371
rfoot -16.0416 -19.2295
rtoes -20.6957
lfemur -49.0733 7.45356 -8.2196
ltibia 59.2004
lfoot -22.9116 -1.87406
ltoes -29.506
1451
root 6.19595 14.5186 -14.2558 -348.088 4.96872 -0.0273418
lowerback 24.4122 -0.020362 1.9466
upperback 17.1074 0.412693 -0.555917
thorax 5.50808 0.459911 -1.7757
lowerneck -4.92214 4.01491 0.726494
upperneck -13.9399 5.48823 -0.7737
head -3.61906 2.78303 -0.469961
rclavicle -6.95746e-016 -2.88238e-015
rhumerus -22.5253 73.7085 -27.7344
rradius 112.912
rwrist -99.7436
rhand 48.2829 9.96474
rfingers 7.12502
rthumb 68.7895 10.7161
lclavicle -6.95746e-016 -2.88238e-015
lhumerus 6.72762 -69.0051 2.01326
lradius 108.16
lwrist 58.6009
lhand 65.0534 39.3791
lfingers 7.12502
lthumb 74.8948 -11.6297
rfemur -48.7582 -7.75749 12.4941
rtibia 63.6647
rfoot -15.6716 -19.2858
rtoes -20.5564
lfemur -48.8942 7.74497 -8.33985
ltibia 59.1758
lfoot -23.0379 -1.90538
ltoes -29.5941
1452
root 6.26161 14.5401 -14.2455 -348.398 4.94743 -0.0511892
lowerback 24.6254 0.0652712 1.63107
upperback 17.0459 0.469865 -0.611961
thorax 5.33152 0.461782 -1.67179
lowerneck -4.78659 3.96329 0.35827
upperneck -13.9873 5.45616 -0.475415
head -3.68174 2.77385 -0.315039
rclavicle 3.77691e-015 -4.22417e-015
rhumerus -22.9685 73.856 -28.6921
rradius 111.209
rwrist -98.9953
rhand 44.3587 10.9373
rfingers 7.12502
rthumb 65.8945 5.32375
lclavicle 3.77691e-015 -4.22417e-015
lhumerus 5.95349 -69.1374 3.46291
lradius 105.924
lwrist 57.2082
lhand 61.9287 39.516
lfingers 7.12502
lthumb 74.9061 0.110868
rfemur -48.0783 -7.62224 12.1776
rtibia 63.2498
rfoot -15.7137 -19.2167
rtoes -19.9879
lfemur -48.3892 7.90499 -8.65554
ltibia 59.0753
lfoot -23.2814 -2.19024
ltoes -29.297
1453
root 6.32881 14.5666 -14.2343 -348.785 5.05661 -0.17002
lowerback 24.9198 0.113557 1.51483
upperback 17.0671 0.51693 -0.644711
thorax 5.21885 0.477409 -1.6536
lowerneck -4.88579 3.87815 0.28303
upperneck -14.1098 5.34646 -0.434246
head -3.71102 2.72144 -0.286817
rclavicle 1.59028e-015 -7.65321e-015
rhumerus -23.7904 73.8515 -30.0745
rradius 109.183
rwrist -97.4312
rhand 37.4976 11.1739
rfingers 7.12502
rthumb 60.2904 -2.29789
lclavicle 1.59028e-015 -7.65321e-015
lhumerus 5.61486 -69.0517 4.49823
lradius 103.382
lwrist 55.5991
lhand 57.2149 39.5091
lfingers 7.12502
lthumb 73.7702 16.4972
rfemur -47.2279 -7.57699 11.9749
rtibia 62.7371
rfoot -15.799 -19.1508
rtoes -19.2501
lfemur -47.8399 7.84888 -8.80854
ltibia 58.9828
lfoot -23.6997 -2.24874
ltoes -29.4425
1454
root 6.39368 14.5925 -14.2249 -348.909 5.04326 -0.167143
lowerback 24.9884 0.11584 1.04854
upperback 16.9889 0.435416 -0.629356
thorax 5.08231 0.391714 -1.35874
lowerneck -4.96458 3.92137 -0.166165
upperneck -14.0374 5.41126 -0.422514
head -3.68467 2.77629 -0.205147
rclavicle 6.4605e-016 5.86415e-015
rhumerus -22.9954 74.1372 -29.7391
rradius 107.188
rwrist -95.9946
rhand 28.7782 10.6631
rfingers 7.12502
rthumb 52.6052 -9.0761
lclavicle 6.4605e-016 5.86415e-015
lhumerus 4.04598 -68.9829 6.62392
lradius 100.882
lwrist 54.0865
lhand 51.0961 39.5617
lfingers 7.12502
lthumb 70.6521 33.095
rfemur -46.7042 -7.4634 11.6444
rtibia 62.1775
rfoot -15.2695 -19.1019
rtoes -19.4923
lfemur -47.555 7.83246 -9.11448
ltibia 58.9169
lfoot -24.0038 -2.24574
ltoes -29.0636
1455
root 6.45832 14.618 -14.2169 -348.93 5.07346 -0.403868
lowerback 24.9951 0.152807 0.920957
upperback 16.8301 0.457123 -0.607839
thorax 4.88931 0.386392 -1.26833
lowerneck -4.98687 3.90409 -0.403219
upperneck -13.8838 5.38966 -0.403459
head -3.63372 2.77607 -0.15539
rclavicle -1.39646e-014 -2.49723e-015
rhumerus -23.7032 74.2367 -30.983
rradius 104.918
rwrist -95.0601
rhand 21.262 11.7746
rfingers 7.12502
rthumb 45.7088 -11.4402
lclavicle -1.39646e-014 -2.49723e-015
lhumerus 3.20087 -68.974 7.94131
lradius 98.514
lwrist 52.5238
lhand 44.6281 40.4047
lfingers 7.12502
lthumb 66.1021 45.6328
rfemur -46.2801 -7.24102 11.5773
rtibia 61.592
rfoot -14.7295 -19.1197
rtoes -19.6109
lfemur -47.49 7.86878 -9.15408
ltibia 58.9049
lfoot -24.1331 -2.59844
ltoes -27.7933
1456
root 6.52221 14.6351 -14.206 -349.069 5.22344 -1.13595
lowerback 24.9715 0.13893 1.32822
upperback 16.7733 0.512289 -0.521863
thorax 4.84025 0.440717 -1.41586
lowerneck -5.00288 3.88945 -0.323498
upperneck -13.9742 5.35352 -0.547908
head -3.65571 2.75952 -0.216368
rclavicle -2.93207e-015 1.44616e-014
rhumerus -24.2035 74.2997 -32.1738
rradius 102.36
rwrist -93.5263
rhand 15.4348 14.4693
rfingers 7.12502
rthumb 40.2608 -10.6776
lclavicle -2.93207e-015 1.44616e-014
lhumerus 2.75782 -68.807 8.80768
lradius 96.1738
lwrist 50.8804
lhand 38.378 41.7052
lfingers 7.12502
lthumb 61.0375 54.3481
rfemur -45.7165 -6.84533 12.0361
rtibia 61.017
rfoot -14.8272 -19.2279
rtoes -19.0478
lfemur -47.4629 7.96842 -8.60393
ltibia 58.9563
lfoot -24.216 -2.79762
ltoes -27.6084
